<?xml version="1.0" encoding="utf-8"?><svg viewBox="0 0 416.34 409.6" xmlns="http://www.w3.org/2000/svg" xmlns:xlink="http://www.w3.org/1999/xlink"><style>:root>svg{display:none}:root>svg:target{display:block}</style><svg viewBox="0 0 26.1 20" id="arrow-left" xmlns="http://www.w3.org/2000/svg"><path d="M.1 9.7v-.1c0-.1.1-.2.2-.3l9-9c.4-.4 1-.4 1.4 0s.4 1 0 1.4L3.4 9H25c.5 0 1 .5 1 1s-.5 1-1 1H3.4l7.3 7.3c.4.4.4 1 0 1.4-.2.2-.4.3-.7.3-.3 0-.5-.1-.7-.3l-9-9c-.2-.2-.3-.4-.3-.7 0-.1 0-.2.1-.3z"/></svg><svg viewBox="0 0 26.1 20" id="arrow-right" xmlns="http://www.w3.org/2000/svg"><path d="M26 10c0 .3-.1.5-.3.7l-9 9c-.2.2-.4.3-.7.3-.3 0-.5-.1-.7-.3-.4-.4-.4-1 0-1.4l7.3-7.3H1c-.5 0-1-.5-1-1s.5-1 1-1h21.6l-7.3-7.3c-.4-.4-.4-1 0-1.4.4-.4 1-.4 1.4 0l9 9c.1.1.2.2.2.3v.1c.1.1.1.2.1.3z"/></svg><svg data-name="Layer 1" viewBox="0 0 101.797 133.6" id="blood-donation" xmlns="http://www.w3.org/2000/svg"><path d="M54.304 133.6H47.52c-.422-.08-.84-.196-1.265-.236-8.884-.838-17.001-3.82-24.278-8.947-9.31-6.56-15.812-15.275-19.398-26.103-2.63-7.938-3.235-16.058-1.877-24.31C2.12 65.38 5.745 57.741 10.97 50.776 22.99 34.752 34.934 18.672 46.954 2.648 47.728 1.618 48.888.876 49.868 0h2.088c.824.667 1.829 1.2 2.445 2.022 12.38 16.515 24.746 33.04 37.048 49.612 8.389 11.3 11.755 23.957 9.813 37.942-1.57 11.315-6.507 21.014-14.528 29.073-7.732 7.768-17.115 12.495-27.931 14.333-1.492.253-2.999.414-4.499.618zM39.167 94.185c0 3.9-.013 7.631.004 11.362.013 2.706 1.588 4.282 4.31 4.293 4.955.02 9.911.02 14.867 0 2.719-.01 4.29-1.589 4.305-4.297.018-3.303.005-6.607.005-9.911v-1.447c3.876 0 7.567.012 11.257-.004 2.824-.013 4.39-1.553 4.4-4.334.014-4.956.015-9.912-.001-14.867-.009-2.734-1.55-4.27-4.29-4.285-3.304-.018-6.608-.004-9.912-.004h-1.455c0-3.925.013-7.659-.004-11.392-.013-2.676-1.546-4.252-4.18-4.263-5.042-.022-10.084-.022-15.127 0-2.631.011-4.16 1.588-4.175 4.266-.018 3.304-.004 6.608-.005 9.912v1.477c-3.864 0-7.552-.01-11.24.003-2.907.01-4.411 1.514-4.418 4.42-.01 4.782-.005 9.564-.002 14.345.003 3.298 1.45 4.722 4.798 4.725 3.56.003 7.12 0 10.863 0zm3.525-7.828c2.73.013 4.285 1.565 4.301 4.29.02 3.305.005 6.61.005 9.915v1.385h7.828v-1.333c0-3.305-.012-6.61.004-9.915.014-2.802 1.558-4.328 4.38-4.344 2.523-.013 5.045-.003 7.567-.003h3.616v-7.828c-3.268 0-6.445-.12-9.609.03-4.278.204-6.232-1.198-5.989-5.965.163-3.197.031-6.408.031-9.643h-7.828c0 3.692.004 7.295-.001 10.897-.005 3.205-1.49 4.674-4.73 4.68-3.174.005-6.349 0-9.523 0H31.37v7.83c3.861 0 7.592-.013 11.323.004z"/></svg><svg data-name="Layer 1" viewBox="0 0 416.337 323.328" id="check" xmlns="http://www.w3.org/2000/svg"><path d="M416.337 51.839c-2.111 9.85-8.37 16.895-15.28 23.79-79.982 79.818-159.866 159.736-239.723 239.68-6.312 6.32-13.473 9.786-22.296 7.104-3.603-1.095-7.297-3.219-9.963-5.868A32531.237 32531.237 0 0110.032 197.611c-13.53-13.585-13.292-32.73.218-46.422 4.472-4.533 8.97-9.042 13.507-13.51 13.665-13.451 32.825-13.546 46.415-.032 23.73 23.597 47.353 47.302 70.978 71.004 1.028 1.031 1.637 2.48 3.118 4.789 1.917-2.59 2.738-4.049 3.878-5.189 65.506-65.553 131.039-131.081 196.57-196.609 15.473-15.47 33.915-15.524 49.327-.151 2.207 2.2 4.322 4.5 6.627 6.592 7.322 6.644 13.516 13.994 15.667 24v9.756z"/></svg><svg viewBox="0 0 329.269 329" id="close" xmlns="http://www.w3.org/2000/svg"><path d="M194.8 164.77L323.013 36.555c8.343-8.34 8.343-21.825 0-30.164-8.34-8.34-21.825-8.34-30.164 0L164.633 134.605 36.422 6.391c-8.344-8.34-21.824-8.34-30.164 0-8.344 8.34-8.344 21.824 0 30.164l128.21 128.215L6.259 292.984c-8.344 8.34-8.344 21.825 0 30.164a21.266 21.266 0 0015.082 6.25c5.46 0 10.922-2.09 15.082-6.25l128.21-128.214 128.216 128.214a21.273 21.273 0 0015.082 6.25c5.46 0 10.922-2.09 15.082-6.25 8.343-8.34 8.343-21.824 0-30.164zm0 0"/></svg><svg data-name="Layer 1" viewBox="0 0 346.351 255.321" id="email" xmlns="http://www.w3.org/2000/svg"><path d="M0 72.18c22.032 13.406 44.076 26.79 66.093 40.221 31.542 19.241 63.107 38.444 94.564 57.824 8.404 5.178 16.256 5.125 24.669-.023 52.27-31.981 104.629-63.816 156.96-95.697 1.143-.696 2.304-1.362 4.061-2.398v3.914c0 42.06.01 84.12-.003 126.18-.01 31.041-22.134 53.078-53.409 53.093-73.845.035-147.691.046-221.536-.03-9.79-.01-19.722.37-29.337-1.09-21.576-3.273-38.067-20.647-41.41-42.142-.097-.628-.43-1.22-.652-1.829V72.18zM52.873.033C28.591.07 8.733 14.736 2.433 36.926c-.667 2.35-.326 3.563 1.84 4.88a92866.87 92866.87 0 01166.758 101.641c1.826 1.115 3.078 1.026 4.824-.08 6.662-4.214 13.431-8.258 20.158-12.369 48.531-29.658 97.048-59.34 145.63-88.913 2.525-1.536 3.282-2.98 2.104-5.635-1.412-3.18-2.349-6.612-4.056-9.614C329.486 8.89 313.863.065 293.311.034c-40.016-.061-80.033-.018-120.05-.018-40.129 0-80.258-.045-120.388.017z"/></svg><svg data-name="Layer 1" viewBox="0 0 319.442 319.996" id="instagram" xmlns="http://www.w3.org/2000/svg"><path d="M319.396 159.967c-.002 29.37.124 58.742-.034 88.112-.188 35.032-23.176 63.334-57.171 70.441-4.841 1.012-9.898 1.373-14.855 1.38-58.388.093-116.775.146-175.162.028-35.189-.072-63.611-23.159-70.706-57.28-.984-4.73-1.36-9.665-1.368-14.507C.01 189.4-.06 130.658.08 71.917.164 36.976 23.312 8.56 57.256 1.467 62.097.456 67.154.1 72.112.091 130.499 0 188.886-.044 247.274.061c35.179.063 63.592 23.109 70.67 57.29 1.104 5.331 1.367 10.911 1.392 16.379.132 28.745.062 57.491.06 86.237zm-56.241.328c.197-57.09-45.871-103.605-102.876-103.872-57.24-.27-103.726 45.823-104 103.118-.272 57.237 45.927 103.89 103.06 104.07 57.212.179 103.618-46.003 103.816-103.316zm24.078-107.021c-.02-12.178-9.717-21.899-21.837-21.894-12.104.006-21.834 9.753-21.853 21.891-.019 12.06 9.818 21.925 21.854 21.919 12.09-.007 21.857-9.809 21.836-21.916zm-68.938 106.913c.107-32.44-25.904-58.687-58.29-58.818-32.585-.13-58.821 26.038-58.806 58.656.014 32.455 26.098 58.63 58.457 58.66 32.384.03 58.532-26.055 58.639-58.498z"/></svg><svg viewBox="0 0 24 20" id="like" xmlns="http://www.w3.org/2000/svg"><path d="M12.112 2.25C19.864-5.503 32.69 8.346 12.033 20-8.42 8.346 4.367-5.503 12.112 2.25z"/></svg><svg viewBox="0 0 95.4 93.9" id="loop" xmlns="http://www.w3.org/2000/svg"><path d="M.2 36c.2-1.6.4-3.2.7-4.7 1.3-7 4.4-13.2 9.2-18.5C15.7 6.6 22.6 2.6 30.8.9 40.5-1 49.6.5 58 5.5c9.6 5.8 15.7 14.2 18 25.1 2 9.3.5 18.2-4.1 26.6-.9 1.6-.9 1.6.4 2.9l20.1 20.1c2.2 2.2 3.1 4.7 2.3 7.7-1.5 5.7-8.6 7.8-13.1 3.2-3.8-3.9-7.6-7.6-11.5-11.5l-9.2-9.2-.5-.5c-2.4 1.2-4.6 2.6-7 3.6-10.3 4.3-20.7 4.2-30.9-.4C14.9 69.8 9.1 64.3 5 57 2.4 52.3.8 47.3.4 41.9c0-.3-.1-.6-.2-.9v-5zm12.4 2.5c0 14.3 11.7 25.9 26 25.9 14.3-.1 25.8-11.6 25.9-25.9 0-14.2-11.7-25.9-25.9-25.9-14.4 0-26.1 11.6-26 25.9z"/></svg><svg data-name="Layer 1" viewBox="0 0 382.602 384" id="muscle" xmlns="http://www.w3.org/2000/svg"><path d="M382.602 56.25c-6.755 6.606-13.561 13.16-20.253 19.83-11.352 11.311-24.374 20.107-39.066 26.46-12.936 5.594-26.61 8.113-40.469 9.94-4.785.63-9.534 1.527-14.862 2.393.584-3.462 1.028-6.601 1.65-9.704 2.546-12.69 4.227-25.646 7.94-37.986 5.513-18.323 16.107-33.895 29.65-47.424C313.702 13.258 320.045 6.59 326.463 0h.748c6.551 6.646 13.063 13.33 19.66 19.93 11.884 11.883 23.819 23.716 35.732 35.57v.75zM55.492 384c6.51-6.685 12.958-13.432 19.544-20.042 12.971-13.018 22.573-28.15 28.99-45.379 4.797-12.876 6.3-26.412 8.352-39.848.476-3.122 1.032-6.23 1.41-8.497-47.523.891-84.94 21.448-113.788 58.701 7.728 7.72 15.871 15.807 23.96 23.947 10.284 10.35 20.524 20.743 30.783 31.118h.748zm62.366-37.52c13.137-6.604 26.963-10.994 41.544-12.93 18.934-2.516 37.592-6.254 55.655-12.61 30.48-10.727 57.234-26.963 77.233-52.993 20.404-26.557 31.14-57.176 37.174-89.73 2.295-12.382 4.045-24.897 7.041-37.107 2.018-8.22 5.785-16.01 8.852-24.214-1.346.65-2.661 1.254-3.95 1.911-13.645 6.965-27.98 11.92-43.158 14.012-23.274 3.208-46.126 7.902-67.92 17.038-31.01 12.998-55.745 33.124-72.282 62.837-12.601 22.64-20.028 46.985-23.916 72.463-2.224 14.574-4.214 29.173-9.777 42.95-2.549 6.315-5.433 12.492-8.33 19.107.785-.311 1.33-.48 1.834-.734zM261.989 38.57c-12.342 5.897-25.236 9.973-38.811 11.783-20.55 2.74-40.752 6.93-60.264 14.141-36.425 13.463-65.924 35.42-85.425 69.682-13.435 23.605-21.387 49.106-25.704 75.803-2.171 13.426-3.555 27.01-8.416 39.844-2.179 5.754-4.665 11.392-7.195 17.525 1.373-.667 2.362-1.121 3.327-1.621 12.47-6.458 25.557-11.178 39.37-13.732a2208.765 2208.765 0 0137.902-6.65c2.692-.45 3.895-1.651 4.74-4.28 10.037-31.195 25.495-59.077 50.248-81.12 19.9-17.72 43.108-29.496 68.296-37.572 2.476-.794 3.667-1.94 4.108-4.473 1.133-6.514 2.798-12.946 3.693-19.488 2.26-16.495 5.135-32.807 11.974-48.14 1.957-4.386 4.06-8.707 6.373-13.652-1.815.839-3.022 1.38-4.216 1.95zM85.887 72.119l-27-27.096-14.96 14.952 26.994 27.09 14.966-14.946zm224.36 224.995l-14.766 14.784 27.56 27.537 14.689-14.704-27.483-27.616zM99.986 70.093h21.984V30.18H99.986v39.915zm-70.51 30.751v22.01h39.837v-22.01H29.477zm323 182.312v-22.008H312.64v22.008h39.836zm-92.422 70.655h21.958v-39.906h-21.958v39.906z"/></svg><svg viewBox="0 0 19.8 20.5" id="phone-call" xmlns="http://www.w3.org/2000/svg"><path d="M12.8 20.5c-.3 0-.6-.1-.8-.1-1.1-.2-2.2-.7-3.2-1.3-1.6-.9-2.9-2.2-4.1-3.5-1.2-1.4-2.4-2.8-3.3-4.4C.8 10 .3 8.7.1 7.4c-.2-1.5 0-3 .7-4.3.4-.7.9-1.3 1.6-1.8.3-.4.6-.7.9-.9.7-.5 1.4-.5 1.9.1.3.3.6.7.9 1.1.5.7 1 1.5 1.3 2.3.3.9.2 1.7-.5 2.3-.3.4-.7.7-1.1 1-.8.6-1 1.3-.6 2.2.2.9.8 1.6 1.3 2.3.7.9 1.5 1.8 2.4 2.5.5.4 1 .8 1.7.9.6.1 1 0 1.5-.4.4-.4.8-.8 1.3-1.2.7-.6 1.5-.6 2.3-.2.3.1.5.3.8.5.8.7 1.7 1.3 2.3 2.2.5.7.5 1.4-.2 2-.6.6-1.2 1.2-2 1.6-.8.4-1.6.7-2.5.8h-.2c-.4.1-.7.1-1.1.1z"/></svg><svg data-name="Layer 1" viewBox="0 0 287.543 384" id="pin" xmlns="http://www.w3.org/2000/svg"><path d="M134.139 0H153.6c2.2.294 4.402.583 6.602.882 45.424 6.174 80.956 28.285 105.493 67.1 18.092 28.618 24.956 60.095 20.558 93.837-2.953 22.652-10.795 43.763-20.642 64.18-15.2 31.514-34.711 60.282-56.298 87.686-19.541 24.809-40.39 48.45-63.199 70.315h-4.491c-1.339-1.263-2.708-2.495-4.013-3.793-27.475-27.336-52.74-56.583-75.402-88.049-19.444-26.996-36.658-55.282-48.927-86.369-12.086-30.62-17.685-62.059-9.234-94.508C18.554 55.586 53.846 19.875 109.221 4.444c8.091-2.255 16.602-3 24.918-4.444zm75.597 143.983c-.136-36.553-29.698-66.11-65.975-65.963-36.62.15-65.86 29.747-65.75 66.556.107 36.207 30.016 65.613 66.529 65.413 35.86-.197 65.33-30.033 65.196-66.006z"/></svg><svg viewBox="0 0 13.9 7.9" id="short-arrow-bottom" xmlns="http://www.w3.org/2000/svg"><path d="M7 7.7L.6 1.3C.4 1.1.4.8.6.6s.5-.2.7 0L7 6.3 12.6.7c.2-.2.5-.2.7 0s.2.5 0 .7L7 7.7z"/></svg><svg viewBox="0 0 7.3 13" id="short-arrow-left" xmlns="http://www.w3.org/2000/svg"><path d="M0 6.6L6.4.2c.2-.2.5-.2.7-.1.2.2.2.5 0 .7L1.4 6.6 7 12.2c.2.2.2.5 0 .7s-.5.2-.7 0L0 6.6z"/></svg><svg viewBox="0 0 7.3 13" id="short-arrow-right" xmlns="http://www.w3.org/2000/svg"><path d="M7.3 6.4L.9 12.8c-.2.2-.5.2-.7 0-.2-.2-.2-.5 0-.7l5.7-5.7L.3.8C.1.6.1.3.3.1s.5-.1.7 0l6.3 6.3z"/></svg><svg data-name="Layer 1" viewBox="0 0 363.735 384" id="stress-relief" xmlns="http://www.w3.org/2000/svg"><path d="M107.096 384c-5.92-2.249-8.771-6.676-10.008-12.814-1.67-8.284-3.95-16.445-6.044-24.963-6.1.994-11.936 2.328-17.842 2.816-8.672.717-17.433 1.522-26.088 1.05-16.67-.908-23.507-10.695-19.568-26.952.992-4.095 2.43-8.08 3.665-12.123-11.602-5.644-13.133-14.482-2.768-20.354-11.1-7.165-12.016-10.311-5.625-19.745-4.209-.558-8.408-.839-12.48-1.71-9.394-2.01-12.48-7.647-8.87-16.548 1.525-3.763 3.934-7.18 6.06-10.683 5.75-9.47 12.01-18.66 17.221-28.414 5.128-9.599 5.36-20.359 5.247-31.068-.25-23.644 6.77-45.018 20.795-63.991 13.61-18.415 31.407-31.646 52.273-40.652 35.866-15.478 72.794-18.947 110.187-6.812 44.304 14.38 69.87 45.566 77.985 91.31 5.082 28.646-2.69 54.395-18.1 78.273-5.141 7.965-10.523 15.8-16.23 23.366-19.547 25.91-23.286 54.199-13.2 84.683 1.683 5.089 3.431 10.163 5.373 15.157 3.967 10.202 2.207 15.267-7.246 20.174H107.096zm36.574-260.837c-.643-.064-.917-.025-1.13-.122-7.244-3.316-14.452-6.715-21.731-9.953-9.218-4.099-18.047.984-19.06 10.979-.867 8.57-1.109 17.228-2.417 25.725-3.959 25.713 13.387 53.13 35.71 63.181 7.833 3.527 15.541 7.338 23.408 10.786 6.775 2.97 13.823 2.96 20.568.087 8.358-3.56 16.542-7.538 24.739-11.466 20.427-9.79 31.805-26.73 33.956-48.603 1.349-13.718-.997-27.841-2.151-41.744-.44-5.305-5.396-9.82-10.598-10.105-3.083-.168-6.447.572-9.328 1.767-7.204 2.988-14.205 6.469-21.432 9.818-4.58-6.509-8.949-12.724-13.323-18.935-7.192-10.215-17.006-10.177-24.248.104-4.371 6.205-8.718 12.428-12.963 18.481zM167.727 0c-3.96 6.769-8.69 12.692-15.942 16.342-2.338 1.177-1.49 3.223.594 4.292 6.202 3.184 10.787 7.886 14.025 14.066 1.327 2.534 3.348 2.448 4.73-.183 3.183-6.058 7.718-10.628 13.774-13.808 2.613-1.372 2.742-3.484.238-4.749-6.993-3.534-11.718-9.112-15.173-15.96h-2.246zm196.008 160.136c-1.087-.383-2.23-.655-3.253-1.166-6.093-3.04-10.609-7.661-13.819-13.68-1.525-2.86-3.412-2.908-4.893-.115-3.195 6.027-7.74 10.57-13.733 13.797-2.722 1.466-2.705 3.451.051 4.921 5.894 3.142 10.376 7.583 13.522 13.487 1.597 2.997 3.493 3.007 5.1.051 3.185-5.86 7.568-10.427 13.522-13.488.907-.467 1.592-1.369 2.379-2.07l1.124-1.737zM152.854 131.69c-13.332 16.823-11.168 43.365-.128 58.234 4.834 6.51 9.345 13.26 14.021 19.887.605.858 1.322 1.637 2.215 2.731 5.545-7.91 10.833-15.463 16.128-23.01 11.643-16.595 11.916-34.272 3.1-51.703-5.074-10.033-12.508-18.87-19.27-28.818-5.675 8.063-10.505 15.662-16.066 22.68zm-20.926 39.317c-1.95-12.609-.59-24.836 4.649-36.836l-22.304-10.325c-.614 6.378-1.361 12.036-1.657 17.717-.407 7.831-1.855 15.946-.416 23.47 3.763 19.684 16.098 32.625 35.162 39.264-7.709-9.944-13.49-20.726-15.434-33.29zm93.2-6.552c1.155-10.268-.463-20.855-.919-31.294-.128-2.927-.572-5.84-.924-9.283L200.852 134.3c10.058 25.637 7.052 48.943-11.439 70.34 19.02-5.303 33.562-21.033 35.715-40.185z"/></svg><svg data-name="Layer 1" viewBox="0 0 134.713 111.164" id="telegram" xmlns="http://www.w3.org/2000/svg"><path d="M134.713 6.903c-.661 4.743-1.271 9.494-1.994 14.228a8855.378 8855.378 0 01-6.234 40.28c-2.177 13.831-4.412 27.653-6.626 41.478-.058.362-.16.718-.25 1.075-1.467 5.822-5.399 8.37-11.184 6.693-3.272-.949-6.553-2.336-9.402-4.186-10.355-6.726-20.544-13.709-30.76-20.647-2.132-1.447-4.134-3.09-6.152-4.698a12.04 12.04 0 01-2.042-2.05c-1.78-2.317-1.838-4.781-.128-7.15.694-.962 1.567-1.809 2.43-2.632C74.117 58.09 85.91 46.94 97.584 35.665c1.577-1.522 2.64-3.608 3.78-5.528.304-.512.274-1.614-.084-2.014-.352-.394-1.448-.53-1.99-.282-2.749 1.26-5.596 2.423-8.098 4.088C75.002 42.704 58.846 53.53 42.793 64.505c-4.164 2.847-8.614 3.643-13.277 2.705-4.9-.986-9.687-2.56-14.484-4.01-3.964-1.196-7.875-2.572-11.8-3.893-3.483-1.172-4.37-4.742-1.578-7.11 1.688-1.43 3.71-2.599 5.764-3.45 38.4-15.92 76.82-31.792 115.27-47.592 1.905-.783 4.106-1.089 6.184-1.152 3.347-.101 5.402 2.021 5.646 5.357.037.504.005 1.014.005 1.52l.19.023z"/></svg><svg data-name="Layer 1" viewBox="0 0 127.184 127.455" id="time" xmlns="http://www.w3.org/2000/svg"><path d="M67.556 127.455h-7.95c-1.554-.192-3.11-.354-4.66-.58-14.91-2.171-27.652-8.646-37.856-19.754C3.565 92.397-1.912 74.93.587 55.111c1.763-13.976 7.814-26.02 17.685-36.054C27.785 9.386 39.242 3.313 52.622.979 54.935.575 57.276.322 59.604 0h7.95c.32.07.635.179.957.204 10.64.817 20.5 4.04 29.409 9.92 15.466 10.21 24.969 24.45 28.306 42.744.414 2.275.642 4.584.957 6.876v7.966c-.07.32-.161.638-.209.962-.434 2.947-.708 5.928-1.313 8.839-5.123 24.657-26.137 44.85-50.88 48.946-2.398.397-4.817.668-7.226.998zm.545-83.561c0-5.474.014-10.947-.007-16.42-.01-2.373-1.44-4.169-3.567-4.594-3.016-.604-5.46 1.515-5.463 4.794-.012 11.775.02 23.55-.03 35.326-.008 2.054.728 3.545 2.322 4.795 4.136 3.245 8.215 6.565 12.318 9.853 3.23 2.59 6.44 5.207 9.704 7.753 2.542 1.982 5.969 1.09 7.118-1.778.79-1.973.243-3.937-1.591-5.414a4377.022 4377.022 0 00-19.87-15.92c-.688-.547-.957-1.102-.951-1.977.037-5.472.019-10.945.017-16.419z"/></svg><svg data-name="Layer 1" viewBox="0 0 140.4 140.4" id="time-outline" xmlns="http://www.w3.org/2000/svg"><path d="M0 74.313v-8.226c.112-.987.226-1.973.336-2.96 1.68-15.106 7.45-28.432 17.631-39.73C28.777 11.402 42.172 3.912 58.108 1.092 60.75.624 63.426.359 66.087 0h8.226c.353.078.702.2 1.059.226 10.98.776 21.254 3.915 30.627 9.66 18.185 11.146 29.381 27.213 33.308 48.236.491 2.631.735 5.309 1.093 7.965v8.226c-.112.987-.226 1.973-.336 2.96-1.68 15.106-7.45 28.432-17.631 39.73-10.81 11.995-24.205 19.485-40.141 22.305-2.641.468-5.318.733-7.979 1.092h-8.226c-.353-.077-.702-.2-1.059-.226-10.98-.776-21.254-3.914-30.627-9.66C16.216 119.368 5.02 103.301 1.093 82.278.602 79.647.358 76.969 0 74.313zm129.496-4.094c.025-32.694-26.495-59.246-59.243-59.315-32.654-.07-59.234 26.448-59.35 59.208-.114 32.68 26.578 59.405 59.312 59.384 32.724-.02 59.257-26.55 59.281-59.277z"/><path d="M64.741 54.303c.001-5.346-.045-10.693.016-16.039.047-4.12 3.793-6.737 7.448-5.297 2.22.874 3.449 2.876 3.451 5.7.009 9.048.053 18.096-.042 27.143-.018 1.617.512 2.535 1.771 3.458 5.857 4.293 11.635 8.695 17.45 13.045 2.022 1.513 2.98 3.469 2.35 5.965-.94 3.737-5.176 5.281-8.395 3.06-2.028-1.4-3.962-2.937-5.935-4.417-5.008-3.753-9.976-7.56-15.037-11.24-2.157-1.568-3.142-3.507-3.1-6.162.078-5.071.022-10.144.023-15.216z"/></svg><svg data-name="Layer 1" viewBox="0 0 409.6 409.6" id="whatsapp" xmlns="http://www.w3.org/2000/svg"><path d="M409.6 192.8v24c-.327 2.878-.66 5.755-.98 8.634-4.892 43.923-21.611 82.711-51.16 115.623-31.573 35.166-70.74 57.108-117.38 65.363-7.706 1.364-15.517 2.135-23.28 3.18h-22.4c-5.81-.65-11.638-1.167-17.427-1.97-29.144-4.046-56.223-13.814-81.05-29.646-2.564-1.634-4.76-2.039-7.746-1.065-23.388 7.628-46.836 15.068-70.267 22.562-1.288.412-2.587.787-4.407 1.34 8.18-24.352 16.05-47.933 24.07-71.464 1.078-3.16.948-5.524-1.075-8.405-17.155-24.44-28.225-51.463-33.285-80.876C1.752 231.584 1.05 222.962 0 214.4v-21.6c.233-1.149.596-2.288.68-3.448 2.306-31.752 11.378-61.476 27.925-88.627C61.081 47.44 108.046 14.704 169.521 3.19c7.69-1.44 15.516-2.145 23.279-3.19h24c1.03.225 2.05.582 3.09.655 32.04 2.25 62.007 11.422 89.358 28.174 53.077 32.507 85.699 79.407 97.163 140.734 1.435 7.676 2.144 15.488 3.189 23.237zM271.591 320.354l.23-.937c2.393-.136 4.82-.065 7.172-.456 3.273-.545 6.596-1.132 9.714-2.226 28.86-10.127 38.704-23.972 39.501-50.794.12-4.055-1.318-6.865-5.047-8.64-15.377-7.322-30.657-14.85-46.097-22.035-7.615-3.543-12.205-2.051-17.29 4.735-4.074 5.436-8.033 10.96-12.215 16.31-6.062 7.759-10.575 8.836-19.818 5.068-34.27-13.973-59.605-38.06-78.486-69.42-2.87-4.767-2.635-7.55 1.076-12.009 4.005-4.811 8.254-9.42 12.359-14.15 4.858-5.597 6.27-11.384 2.951-18.673-6.997-15.371-13.206-31.1-20.014-46.56-.974-2.212-3.205-4.882-5.33-5.407-10.75-2.652-21.975-3.218-30.936 4.113-19.94 16.312-26.137 38.154-22.374 63.05 2.013 13.323 7.318 25.61 14.405 36.98 15.653 25.104 34.118 47.906 56.017 67.934 25.123 22.976 54.646 37.692 87.015 47.092 8.889 2.582 18.102 4.047 27.167 6.025z"/></svg></svg>