<svg data-name="Layer 1" xmlns="http://www.w3.org/2000/svg" viewBox="0 0 235.912 336.035"><defs><linearGradient id="a" x1="0" y1="168.018" x2="235.912" y2="168.018" gradientUnits="userSpaceOnUse"><stop offset="0" stop-color="#1dc7ca"/><stop offset="1" stop-color="#009bdf"/></linearGradient></defs><path d="M235.912 118.163c-.016 65.329-52.952 118.264-118.149 118.148C52.707 236.195-.045 183.268 0 118.157.045 52.82 52.974-.116 118.142 0c65.063.117 117.785 53.015 117.77 118.163ZM82.64 158.775c-.273 6.129 4.167 9.128 9.013 6.69 7.567-3.807 15.074-7.743 22.476-11.86 2.655-1.477 4.702-1.7 7.492-.111 7.357 4.191 14.91 8.047 22.461 11.884 5.23 2.657 9.624-.452 9.165-6.323a23.831 23.831 0 0 0-.273-2.231c-1.37-7.867-2.677-15.746-4.173-23.589-.496-2.598.082-4.377 2.063-6.23 6.198-5.793 12.332-11.675 18.136-17.858 1.454-1.549 2.27-4.393 2.14-6.568-.175-2.931-2.76-4.08-5.632-4.473-8.392-1.148-16.755-2.519-25.155-3.597-2.63-.338-4.162-1.35-5.306-3.825-3.347-7.243-7.003-14.341-10.505-21.512-1.403-2.872-2.785-5.628-6.672-5.588-3.9.04-5.172 2.9-6.563 5.744-3.508 7.169-7.15 14.275-10.505 21.514-1.092 2.355-2.573 3.31-5.04 3.635-8.274 1.089-16.515 2.426-24.787 3.534-2.937.394-5.302 1.307-6.326 4.358-1.04 3.097.458 5.23 2.554 7.257 5.922 5.726 11.676 11.63 17.724 17.216 2.254 2.08 2.614 4.102 2.078 6.928-1.63 8.578-3.02 17.202-4.365 25.005Zm-34.815 78.569c-.005 30.237-.006 60.474.003 90.71 0 .871.018 1.76.183 2.61.856 4.388 5.157 6.556 9.143 4.556 1.44-.723 2.759-1.696 4.113-2.585 17.3-11.364 34.63-22.685 51.869-34.142 3.362-2.235 6.365-2.466 9.593-.02 1.19.902 2.5 1.642 3.75 2.464 16.776 11.029 33.547 22.064 50.327 33.086 3.958 2.6 7.255 2.8 9.33-.102 1.255-1.757 1.868-4.349 1.877-6.569.119-29.612.082-59.224.07-88.837 0-1.064-.141-2.128-.235-3.443-46.706 25.796-93.115 25.745-139.88-.058-.07 1.096-.143 1.713-.143 2.33Z" style="fill:url(#a)"/></svg>