<svg data-name="Layer 1" xmlns="http://www.w3.org/2000/svg" viewBox="0 0 75.873 25.388"><defs><linearGradient id="a" x1="0" y1="12.694" x2="75.873" y2="12.694" gradientUnits="userSpaceOnUse"><stop offset="0" stop-color="#1dc7ca"/><stop offset="1" stop-color="#009bdf"/></linearGradient></defs><path d="M36.773 9.207h4.061v15.74h-4.061V23.09c-1.218 1.532-2.928 2.298-5.132 2.298-2.099 0-3.898-.802-5.398-2.408-1.501-1.606-2.251-3.573-2.251-5.903 0-2.33.75-4.297 2.25-5.902 1.5-1.606 3.3-2.41 5.399-2.41 2.204 0 3.914.767 5.132 2.3V9.206ZM29.28 20.273c.818.829 1.857 1.243 3.116 1.243 1.26 0 2.303-.414 3.133-1.243.828-.83 1.243-1.894 1.243-3.196s-.415-2.366-1.243-3.195c-.83-.83-1.873-1.244-3.133-1.244-1.259 0-2.298.415-3.116 1.244-.82.83-1.229 1.894-1.229 3.195s.41 2.367 1.229 3.196ZM61.927 8.766c1.805 0 3.247.588 4.33 1.763 1.08 1.176 1.62 2.75 1.62 4.722v9.696h-4.061v-9.413c0-.944-.23-1.678-.693-2.203-.461-.525-1.112-.787-1.952-.787-.924 0-1.642.304-2.156.913-.515.609-.771 1.49-.771 2.644v8.846h-4.06v-9.413c0-.944-.232-1.678-.693-2.203-.462-.525-1.114-.787-1.952-.787-.903 0-1.622.304-2.157.913-.535.609-.802 1.49-.802 2.644v8.846h-4.062V9.207h4.062v1.668c.944-1.406 2.402-2.11 4.375-2.11 1.931 0 3.358.757 4.282 2.268 1.049-1.511 2.612-2.267 4.69-2.267Zm11.428-1.448c-.672 0-1.254-.247-1.747-.74-.493-.493-.74-1.075-.74-1.747 0-.672.247-1.26.74-1.763.493-.504 1.075-.756 1.747-.756.692 0 1.285.252 1.78.756.491.503.738 1.091.738 1.763 0 .672-.247 1.254-.739 1.747a2.427 2.427 0 0 1-1.78.74Zm-2.015 17.63V9.206h4.062v15.74H71.34ZM12.32 4.197c2.51.42 3.71 1.81 3.68 4.1-.04 2.18-1.46 3.83-3.85 3.99-3 .21-6.01.12-9.01.15-1 .01-2 0-3.05 0v3.93c2.88 0 5.58.06 8.27-.03 1.18-.03 1.88.38 2.51 1.33 1.42 2.15 2.93 4.25 4.46 6.34.33.45.83 1.03 1.31 1.07 1.4.14 2.83.05 4.69.05-2.37-3.33-4.49-6.32-6.7-9.43 2.91-1.07 4.96-2.71 5.66-5.61 1.34-5.56-2.25-9.9-8.43-10.04C7.91-.031 3.95.009 0 .019v4.03c3.27-.01 6.53 0 9.8 0 .84 0 1.69.01 2.52.15Z" style="fill:url(#a)"/><path style="fill:#fbaf00" d="M.066 19.324h4.816v5.883H.066z"/></svg>