<svg data-name="Layer 1" xmlns="http://www.w3.org/2000/svg" viewBox="0 0 383.295 337.453"><defs><linearGradient id="a" x1="0" y1="168.726" x2="383.295" y2="168.726" gradientUnits="userSpaceOnUse"><stop offset="0" stop-color="#1dc7ca"/><stop offset="1" stop-color="#009bdf"/></linearGradient></defs><path d="M383.295 174.716c-.716 3.016-1.224 6.1-2.18 9.038-7.766 23.874-24.23 38.023-48.966 40.72-23.261 2.535-41.75-7.083-53.9-27.19-7.155-11.838-17.157-17.218-30.525-17.309a1399.78 1399.78 0 0 0-22.448.004c-13.213.123-23.397 5.28-30.195 17.161-11.073 19.354-33.672 30.483-54.618 27.46-23.97-3.459-42.219-19.326-48.08-41.807-6.965-26.71 6.823-54.83 32.253-65.775 25.54-10.994 55.75-1.687 69.817 22.343 7.56 12.916 18.302 18.429 32.703 18.102 9.461-.215 18.996.192 28.361-.878 9.479-1.082 16.759-6.44 21.693-14.902 12.744-21.86 35.583-32.673 59.417-28.316 23.752 4.342 41.557 22.627 46.022 47.244.13.717.427 1.404.646 2.105v12ZM157.72 179.8v-22.035h-21.992V179.8h21.992Zm135.3-123.546c-.329 25.226-17.146 47.32-41.467 54.12-24.099 6.739-50.165-3.231-62.737-24.907-7.433-12.814-18.122-18.269-32.386-18-9.218.173-18.497-.246-27.637.689-10.251 1.048-17.898 6.717-23.142 15.83-12.079 20.99-34.395 31.452-58.35 27.665C24.86 108.102 6.25 90.254 1.236 67.47-5.508 36.824 16.621 5.124 47.836.713 72.155-2.723 93.622 7.6 105.942 28.89c5.282 9.128 13.159 14.733 23.377 15.444 11.767.819 23.69.78 35.45-.121 10.259-.787 17.882-6.708 23.117-15.824C199.91 7.454 222.432-3.074 246.266.787c22.15 3.588 40.299 21.176 45.205 43.988.81 3.763 1.048 7.65 1.55 11.479Zm-45.454 11.134V45.242h-21.904v22.146h21.904Zm45.628 213.729c-.471 25.276-17.278 47.437-41.546 54.232-24.303 6.806-50.305-3.251-62.977-25.117-7.26-12.525-17.794-17.955-31.769-17.755-9.466.135-18.994-.234-28.38.735-10.107 1.044-17.646 6.716-22.822 15.689-12.143 21.052-34.257 31.475-58.301 27.762-22.526-3.479-41.28-21.513-46.237-44.46-6.578-30.46 15.529-62.015 46.575-66.479 24.281-3.492 45.874 6.853 58.15 28.083 5.118 8.85 12.652 14.59 22.603 15.358 11.882.917 23.93.97 35.817.136 10.542-.741 18.347-6.756 23.721-16.148 11.147-19.48 33.447-30.74 54.436-27.904 23.971 3.238 42.299 18.883 48.287 41.521 1.235 4.67 1.65 9.559 2.443 14.347ZM225.49 292.17h22.124v-21.976H225.49v21.976Z" style="fill:url(#a)"/></svg>