<svg data-name="Layer 1" xmlns="http://www.w3.org/2000/svg" viewBox="0 0 315.476 384"><defs><linearGradient id="a" x1="0" y1="192" x2="315.476" y2="192" gradientUnits="userSpaceOnUse"><stop offset="0" stop-color="#1dc7ca"/><stop offset="1" stop-color="#009bdf"/></linearGradient></defs><path d="M160.792 384h-5.988c-11.816-5.793-24.264-10.576-35.346-17.542C44.423 319.295 6.891 249.81.794 162.428c-1.432-20.52-.449-41.206-.65-61.815-.061-6.275 2.766-10.47 8.123-13.635C36.27 70.435 64.16 53.698 92.12 37.081 112.99 24.68 133.907 12.357 154.804 0h5.988c1.846.994 3.733 1.92 5.533 2.992 47 27.994 93.967 56.042 141.012 83.958 5.658 3.358 8.2 7.888 8.138 14.408-.148 15.24-.035 30.481-.052 45.722-.042 38.078-7.269 74.685-22.93 109.442-21.94 48.686-55.356 87.159-102.156 113.33-9.512 5.319-19.68 9.462-29.545 14.148Zm-28.616-167.098c-6.59-6.68-12.357-12.902-18.57-18.637-2.34-2.159-5.563-3.925-8.653-4.572-5.184-1.085-10.23 2.073-12.617 6.78-2.49 4.91-1.682 10.689 2.42 14.87 8.568 8.734 17.259 17.346 25.902 26.006 7.876 7.89 14.365 7.942 22.153.142 25.406-25.442 50.803-50.892 76.196-76.347 1.056-1.059 2.14-2.115 3.04-3.302 3.953-5.216 3.277-12.54-1.506-17.007-5.33-4.978-12.905-4.494-18.68 1.285a55801.96 55801.96 0 0 0-66.927 67.078c-.958.962-1.647 2.194-2.758 3.704Z" style="fill:url(#a)"/></svg>